# xmcd CD database file
#
# Track frame offsets:
#	150
#	20007
#	43259
#	81714
#	104877
#	120210
#	150282
#	186428
#	220540
#	241327
#	263016
#
# Disc length: 3834 seconds
#
# Revision: 0
# Processed by: cddbd v1.5.2PL0 Copyright (c) Steve Scherf et al.
# Submitted via: CDex 1.70beta2
#
DISCID=940ef80b
DTITLE=Modesto Biseño - Dulcinea
DYEAR=2005
DGENRE=Jazz
TTITLE0=It Could Happen to You
TTITLE1=Dolphin Dance
TTITLE2=Invitation
TTITLE3=A Child is Born
TTITLE4=Rocinante
TTITLE5=Dulcinea
TTITLE6=What's New
TTITLE7=Soul Eyes
TTITLE8=Half Nelson
TTITLE9=Wild Flower
TTITLE10=Down
EXTD=YEAR: 2005
EXTT0=
EXTT1=
EXTT2=
EXTT3=
EXTT4=
EXTT5=
EXTT6=
EXTT7=
EXTT8=
EXTT9=
EXTT10=
PLAYORDER=
